<?xml version="1.0" encoding="utf-8"?>
<!-- Svg Vector Icons : http://www.onlinewebfonts.com/icon -->
<!DOCTYPE svg PUBLIC "-//W3C//DTD SVG 1.1//EN" "http://www.w3.org/Graphics/SVG/1.1/DTD/svg11.dtd">
<svg version="1.1" xmlns="http://www.w3.org/2000/svg" xmlns:xlink="http://www.w3.org/1999/xlink" x="0px" y="0px" viewBox="0 0 256 256" enable-background="new 0 0 256 256" xml:space="preserve">
<metadata> Svg Vector Icons : http://www.onlinewebfonts.com/icon </metadata>
<g><g><g><path fill="#4053F6" d="M42.1,23.8c-1.6,1.5-1.8,2.5-1.8,8.2v6.5l-13.6,0.2C13.6,39,13.1,39.1,11.6,41c-1.5,1.9-1.6,4.6-1.6,95.7c0,92.7,0,93.8,1.6,95.4c1.6,1.6,2.7,1.6,116,1.6c112.8,0,114.4,0,116-1.6c0.9-0.9,1.8-2.5,2-3.4c0.2-1.1,0.3-43.3,0.2-93.9l-0.2-92l-1.9-1.9c-1.7-1.8-2.5-1.9-15.7-2.1l-13.9-0.2v-6.4c0-5.6-0.2-6.6-1.9-8.1c-2.5-2.3-5.6-2.3-7.8,0.1c-1.6,1.6-1.8,2.9-1.8,8.2v6.3h-5.7h-5.7v-6.2c0-5.5-0.2-6.5-2-8.2c-2.4-2.5-5.6-2.6-7.8-0.4c-1.4,1.4-1.6,2.7-1.6,8.2v6.6h-52.5H74.8v-6.4c0-5.7-0.2-6.6-1.9-8.2c-2.5-2.3-5.6-2.3-7.8,0.1c-1.6,1.6-1.8,2.9-1.8,8.2v6.3h-5.7h-5.7v-6.2c0-5.5-0.2-6.5-2-8.2C47.4,21.8,44.5,21.6,42.1,23.8z M41.2,57c0,6.5,0.2,7.1,2.1,8.6c2.9,2.2,4.8,2.1,7.3-0.3c1.8-1.8,2-2.6,2-8.6v-6.6h5.7h5.7v6.6c0,6,0.2,6.8,2,8.6c2.5,2.5,4.4,2.5,7.3,0.3c2-1.6,2.1-2.1,2.1-8.6v-6.9h52.9h52.9V57c0,6.5,0.2,7.1,2.1,8.6c2.9,2.2,4.8,2.1,7.3-0.3c1.8-1.8,2-2.6,2-8.6v-6.6h5.7h5.7v6.6c0,6,0.2,6.8,2,8.6c2.5,2.5,4.4,2.5,7.3,0.3c2-1.6,2.1-2.1,2.1-8.6v-6.9h9h9v86.1v86.1H127.7H21.5v-86.1V50.1h9.8h9.8L41.2,57L41.2,57z"/><path fill="#4053F6" d="M125,76.9c-0.6,0.2-4.9,8.2-9.8,17.7c-4.8,9.6-8.7,17.5-8.9,17.6c-0.1,0.2-7.5,1.3-16.5,2.6c-22.1,3.3-21.6,3.2-23.4,5c-3.4,3.4-2.5,5.1,12.5,20l13.9,14.1l-3.3,18.8c-3.5,20.5-3.4,22.1,0.8,23.6c1.9,0.7,4.5-0.5,19.5-8.4l17.5-9.2l16.4,8.7c9,4.8,17.2,8.9,18.2,9.1c1.3,0.3,2.6-0.2,4.2-1.6l2.4-2l-3.2-20l-3.1-19.9l14.1-13.6c14.9-14.3,15.8-15.7,12.6-19.6c-1.2-1.5-4-2-18.3-4.2c-9.3-1.4-17.9-2.7-19.1-3c-2-0.4-3.2-2.3-10.8-17.5C131.5,76.6,130,74.8,125,76.9z M141.4,122.1c0.7,0.6,7.6,2,15.5,3.1c7.9,1.2,14.4,2.3,14.6,2.5c0.2,0.2-4.3,5.1-10,10.9c-8.3,8.3-10.4,10.9-10.4,12.7c0,1.2,1,8,2.1,14.9c1.1,7.1,2,13,1.7,13.2c-0.2,0.2-6.2-2.5-13-6.2s-13.3-6.6-14.2-6.6c-0.9,0-7.4,3.1-14.3,6.9c-7,3.8-12.8,6.7-13,6.6c-0.1-0.1,0.9-6.7,2.2-14.8c1.6-9.2,2.2-15.1,1.7-15.9c-0.3-0.7-5.3-5.9-11-11.5c-5.7-5.6-10.3-10.2-10.2-10.3c0.2-0.1,6.6-1.1,14.4-2.3c7.8-1.1,14.8-2.5,15.5-3.1c0.7-0.6,4.2-7,7.9-14.3l6.6-13.1l6.3,13.1C137.3,115.1,140.7,121.5,141.4,122.1z"/></g></g></g>
</svg>